RoundelLatin-Bold.ufo
<glyph name="quotedbl" format="1">
  <advance width="406"/>
  <unicode hex="0022"/>
  <outline>
    <contour>
      <point x="186" y="688" type="line"/>
      <point x="40" y="688" type="line"/>
      <point x="52" y="454" type="line"/>
      <point x="170" y="454" type="line"/>
    </contour>
    <contour>
      <point x="366" y="688" type="line"/>
      <point x="220" y="688" type="line"/>
      <point x="232" y="454" type="line"/>
      <point x="350" y="454" type="line"/>
    </contour>
  </outline>
</glyph>
<glyph name="quotesingle" format="1">
  <advance width="226"/>
  <unicode hex="0027"/>
  <outline>
    <contour>
      <point x="186" y="688" type="line"/>
      <point x="40" y="688" type="line"/>
      <point x="52" y="454" type="line"/>
      <point x="170" y="454" type="line"/>
    </contour>
  </outline>
</glyph>
<glyph name="asterisk" format="1">
  <advance width="433"/>
  <unicode hex="002A"/>
  <outline>
    <contour>
      <point x="275" y="362" type="line"/>
      <point x="365" y="428" type="line"/>
      <point x="278" y="520" type="line"/>
      <point x="403" y="541" type="line"/>
      <point x="369" y="647" type="line"/>
      <point x="255" y="592" type="line"/>
      <point x="273" y="718" type="line"/>
      <point x="161" y="718" type="line"/>
      <point x="179" y="593" type="line"/>
      <point x="65" y="649" type="line"/>
      <point x="30" y="543" type="line"/>
      <point x="155" y="520" type="line"/>
      <point x="66" y="429" type="line"/>
      <point x="156" y="364" type="line"/>
      <point x="216" y="475" type="line"/>
    </contour>
  </outline>
</glyph>
<glyph name="hyphen" format="1">
  <advance width="335"/>
  <unicode hex="002D"/>
  <outline>
    <contour>
      <point x="40" y="333" type="line"/>
      <point x="40" y="333"/>
      <point x="40" y="198"/>
      <point x="40" y="198" type="curve"/>
      <point x="295" y="198" type="line"/>
      <point x="295" y="333" type="line"/>
    </contour>
  </outline>
</glyph>
<glyph name="two" format="1">
  <advance width="594.0"/>
  <unicode hex="0032"/>
  <outline>
    <contour>
      <point x="554" y="0" type="line"/>
      <point x="554" y="150" type="line"/>
      <point x="245" y="150" type="line"/>
      <point x="406" y="293" type="line" smooth="yes"/>
      <point x="475" y="354"/>
      <point x="542" y="410"/>
      <point x="542" y="508" type="curve"/>
      <point x="542" y="618"/>
      <point x="455" y="698"/>
      <point x="315" y="698" type="curve"/>
      <point x="203" y="698"/>
      <point x="105" y="649"/>
      <point x="59" y="615" type="curve"/>
      <point x="59" y="444" type="line"/>
      <point x="120" y="494"/>
      <point x="215" y="545"/>
      <point x="299" y="545" type="curve"/>
      <point x="342.692307692" y="545.0"/>
      <point x="370.0" y="530.157894737"/>
      <point x="370" y="498" type="curve"/>
      <point x="370.0" y="468.403846154"/>
      <point x="346.354899323" y="437.525053532"/>
      <point x="292" y="384" type="curve" smooth="yes"/>
      <point x="30" y="126" type="line"/>
      <point x="30" y="0" type="line"/>
    </contour>
  </outline>
</glyph>
<glyph name="less" format="1">
  <advance width="521"/>
  <unicode hex="003C"/>
  <outline>
    <contour>
      <point x="491" y="242" type="line"/>
      <point x="190" y="348" type="line"/>
      <point x="190" y="341" type="line"/>
      <point x="491" y="447" type="line"/>
      <point x="491" y="603" type="line"/>
      <point x="30" y="416" type="line"/>
      <point x="30" y="274" type="line"/>
      <point x="491" y="86" type="line"/>
    </contour>
  </outline>
</glyph>
<glyph name="greater" format="1">
  <advance width="521"/>
  <unicode hex="003E"/>
  <outline>
    <contour>
      <point x="30" y="242" type="line"/>
      <point x="30" y="86" type="line"/>
      <point x="491" y="274" type="line"/>
      <point x="491" y="416" type="line"/>
      <point x="30" y="603" type="line"/>
      <point x="30" y="447" type="line"/>
      <point x="331" y="341" type="line"/>
      <point x="331" y="348" type="line"/>
    </contour>
  </outline>
</glyph>
<glyph name="C" format="1">
  <advance width="648"/>
  <unicode hex="0043"/>
  <outline>
    <contour>
      <point x="401" y="-12" type="curve" smooth="yes"/>
      <point x="503" y="-12"/>
      <point x="564" y="12"/>
      <point x="618" y="42" type="curve"/>
      <point x="618" y="216" type="line"/>
      <point x="573" y="183"/>
      <point x="503" y="148"/>
      <point x="411" y="148" type="curve"/>
      <point x="291" y="148"/>
      <point x="210" y="223"/>
      <point x="210" y="343" type="curve"/>
      <point x="210" y="463"/>
      <point x="291" y="538"/>
      <point x="411" y="538" type="curve"/>
      <point x="503.0" y="538.0"/>
      <point x="573.0" y="503.0"/>
      <point x="618" y="470" type="curve"/>
      <point x="618" y="644" type="line"/>
      <point x="564" y="674"/>
      <point x="503" y="698"/>
      <point x="401" y="698" type="curve" smooth="yes"/>
      <point x="187" y="698"/>
      <point x="30" y="552"/>
      <point x="30" y="343" type="curve"/>
      <point x="30" y="134"/>
      <point x="187" y="-12"/>
    </contour>
    <contour>
      <point x="394" y="343" type="move" name="center"/>
    </contour>
  </outline>
</glyph>
<glyph name="L" format="1">
  <advance width="586"/>
  <unicode hex="004C"/>
  <outline>
    <contour>
      <point x="60" y="688" type="line"/>
      <point x="60" y="0" type="line"/>
      <point x="230" y="0" type="line"/>
      <point x="230" y="688" type="line"/>
    </contour>
    <contour>
      <point x="93" y="0" type="line"/>
      <point x="566" y="0" type="line"/>
      <point x="566" y="160" type="line"/>
      <point x="93" y="160" type="line"/>
    </contour>
  </outline>
</glyph>
<glyph name="O" format="1">
  <advance width="771"/>
  <unicode hex="004F"/>
  <outline>
    <contour>
      <point x="386" y="-10" type="curve" smooth="yes"/>
      <point x="181" y="-10"/>
      <point x="30" y="136"/>
      <point x="30" y="343" type="curve" smooth="yes"/>
      <point x="30" y="552"/>
      <point x="181" y="698"/>
      <point x="386" y="698" type="curve" smooth="yes"/>
      <point x="590" y="698"/>
      <point x="741" y="552"/>
      <point x="741" y="343" type="curve" smooth="yes"/>
      <point x="741" y="136"/>
      <point x="590" y="-10"/>
    </contour>
    <contour>
      <point x="386" y="160" type="curve" smooth="yes"/>
      <point x="486.0" y="160.0"/>
      <point x="561.0" y="230.165803109"/>
      <point x="561" y="343" type="curve" smooth="yes"/>
      <point x="561.0" y="456.846153846"/>
      <point x="486.0" y="528.0"/>
      <point x="386" y="528" type="curve" smooth="yes"/>
      <point x="285.0" y="528.0"/>
      <point x="210.0" y="456.846153846"/>
      <point x="210" y="343" type="curve"/>
      <point x="210.0" y="230.165803109"/>
      <point x="286.0" y="160.0"/>
    </contour>
  </outline>
</glyph>
<glyph name="W" format="1">
  <advance width="1032"/>
  <unicode hex="0057"/>
  <outline>
    <contour>
      <point x="177" y="0" type="line"/>
      <point x="406" y="0" type="line"/>
      <point x="516" y="481" type="line"/>
      <point x="626" y="0" type="line"/>
      <point x="855" y="0" type="line"/>
      <point x="1017" y="688" type="line"/>
      <point x="812" y="688" type="line"/>
      <point x="738" y="177" type="line"/>
      <point x="614" y="688" type="line"/>
      <point x="419" y="688" type="line"/>
      <point x="294" y="177" type="line"/>
      <point x="220" y="688" type="line"/>
      <point x="15" y="688" type="line"/>
    </contour>
  </outline>
</glyph>
<glyph name="Y" format="1">
  <advance width="715"/>
  <unicode hex="0059"/>
  <outline>
    <contour>
      <point x="443" y="241" type="line"/>
      <point x="715" y="688" type="line"/>
      <point x="522" y="688" type="line"/>
      <point x="360" y="395" type="line"/>
      <point x="195" y="688" type="line"/>
      <point x="0" y="688" type="line"/>
      <point x="273" y="239" type="line"/>
      <point x="273" y="0" type="line"/>
      <point x="443" y="0" type="line"/>
    </contour>
  </outline>
</glyph>
<glyph name="c" format="1">
  <advance width="526"/>
  <unicode hex="0063"/>
  <outline>
    <contour>
      <point x="496" y="493" type="line"/>
      <point x="450" y="525"/>
      <point x="386" y="540"/>
      <point x="317" y="540" type="curve"/>
      <point x="154" y="540"/>
      <point x="30" y="426"/>
      <point x="30" y="265" type="curve" smooth="yes"/>
      <point x="30" y="109"/>
      <point x="152" y="-10"/>
      <point x="315" y="-10" type="curve"/>
      <point x="385" y="-10"/>
      <point x="450" y="6"/>
      <point x="496" y="37" type="curve"/>
      <point x="496" y="196" type="line"/>
      <point x="444" y="160"/>
      <point x="384" y="140"/>
      <point x="322" y="140" type="curve"/>
      <point x="242" y="140"/>
      <point x="192" y="191"/>
      <point x="192" y="265" type="curve" smooth="yes"/>
      <point x="192" y="342"/>
      <point x="242" y="390"/>
      <point x="323" y="390" type="curve"/>
      <point x="384" y="390"/>
      <point x="444" y="370"/>
      <point x="496" y="334" type="curve"/>
    </contour>
    <contour>
      <point x="323" y="265" type="move" name="center"/>
    </contour>
  </outline>
</glyph>
<glyph name="d" format="1">
  <advance width="605"/>
  <unicode hex="0064"/>
  <outline>
    <contour>
      <point x="344" y="397" type="curve" smooth="yes"/>
      <point x="379" y="397"/>
      <point x="412" y="389"/>
      <point x="430" y="381" type="curve"/>
      <point x="477" y="519" type="line"/>
      <point x="435" y="531"/>
      <point x="396" y="540"/>
      <point x="335" y="540" type="curve"/>
      <point x="190" y="540"/>
      <point x="30" y="459"/>
      <point x="30" y="253" type="curve"/>
      <point x="30" y="60"/>
      <point x="159" y="-10"/>
      <point x="265" y="-10" type="curve"/>
      <point x="345" y="-10"/>
      <point x="393" y="15"/>
      <point x="430" y="53" type="curve"/>
      <point x="420" y="161" type="line"/>
      <point x="408" y="151"/>
      <point x="360" y="133"/>
      <point x="316" y="133" type="curve"/>
      <point x="246" y="133"/>
      <point x="196" y="172"/>
      <point x="196" y="265" type="curve"/>
      <point x="196" y="370"/>
      <point x="271" y="397"/>
    </contour>
    <contour>
      <point x="395" y="116" type="line"/>
      <point x="405" y="98" type="line"/>
      <point x="405" y="0" type="line"/>
      <point x="555" y="0" type="line"/>
      <point x="555" y="708" type="line"/>
      <point x="395" y="688" type="line"/>
    </contour>
  </outline>
</glyph>
<glyph name="i" format="1">
  <advance width="271"/>
  <unicode hex="0069"/>
  <outline>
    <contour>
      <point x="55" y="530" type="line"/>
      <point x="55" y="0" type="line"/>
      <point x="215" y="0" type="line"/>
      <point x="215" y="530" type="line"/>
    </contour>
    <contour>
      <point x="136" y="579" type="curve"/>
      <point x="203" y="579"/>
      <point x="241" y="609"/>
      <point x="241" y="660" type="curve"/>
      <point x="241" y="711"/>
      <point x="203" y="740"/>
      <point x="136" y="740" type="curve"/>
      <point x="70" y="740"/>
      <point x="30" y="711"/>
      <point x="30" y="660" type="curve"/>
      <point x="30" y="609"/>
      <point x="70" y="579"/>
    </contour>
  </outline>
</glyph>
<glyph name="j" format="1">
  <advance width="264"/>
  <unicode hex="006A"/>
  <outline>
    <contour>
      <point x="-8" y="-168" type="line"/>
      <point x="117" y="-156"/>
      <point x="208" y="-86"/>
      <point x="208" y="57" type="curve"/>
      <point x="208" y="530" type="line"/>
      <point x="48" y="530" type="line"/>
      <point x="48" y="66" type="line"/>
      <point x="48" y="1"/>
      <point x="23" y="-23"/>
      <point x="-47" y="-39" type="curve"/>
    </contour>
    <contour>
      <point x="129" y="579" type="curve"/>
      <point x="196" y="579"/>
      <point x="234" y="609"/>
      <point x="234" y="660" type="curve"/>
      <point x="234" y="711"/>
      <point x="196" y="740"/>
      <point x="129" y="740" type="curve"/>
      <point x="63" y="740"/>
      <point x="23" y="711"/>
      <point x="23" y="660" type="curve"/>
      <point x="23" y="609"/>
      <point x="63" y="579"/>
    </contour>
  </outline>
</glyph>
<glyph name="k" format="1">
  <advance width="604"/>
  <unicode hex="006B"/>
  <outline>
    <contour>
      <point x="50" y="688" type="line"/>
      <point x="50" y="0" type="line"/>
      <point x="210" y="0" type="line"/>
      <point x="210" y="708" type="line"/>
    </contour>
    <contour>
      <point x="228" y="279" type="line"/>
      <point x="415" y="0" type="line"/>
      <point x="599" y="0" type="line"/>
      <point x="395" y="283" type="line"/>
      <point x="597" y="530" type="line"/>
      <point x="414" y="530" type="line"/>
    </contour>
    <contour>
      <point x="157" y="200" type="line"/>
      <point x="379" y="200" type="line"/>
      <point x="379" y="350" type="line"/>
      <point x="157" y="350" type="line"/>
    </contour>
    <contour>
      <point x="304" y="354" type="move" name="center"/>
    </contour>
  </outline>
</glyph>
<glyph name="r" format="1">
  <advance width="430"/>
  <unicode hex="0072"/>
  <outline>
    <contour>
      <point x="50" y="530" type="line"/>
      <point x="50" y="0" type="line"/>
      <point x="210" y="0" type="line"/>
      <point x="210" y="397" type="line"/>
      <point x="200" y="415" type="line"/>
      <point x="200" y="530" type="line"/>
    </contour>
    <contour>
      <point x="370" y="540" type="curve" smooth="yes"/>
      <point x="292" y="540"/>
      <point x="221" y="492"/>
      <point x="185" y="452" type="curve"/>
      <point x="185" y="352" type="line"/>
      <point x="213" y="368"/>
      <point x="260" y="385"/>
      <point x="314" y="385" type="curve"/>
      <point x="356" y="385"/>
      <point x="395" y="374"/>
      <point x="420" y="361" type="curve"/>
      <point x="420" y="532" type="line"/>
      <point x="404" y="537"/>
      <point x="387" y="540"/>
    </contour>
  </outline>
</glyph>
<glyph name="v" format="1">
  <advance width="607"/>
  <unicode hex="0076"/>
  <outline>
    <contour>
      <point x="208" y="0" type="line"/>
      <point x="398" y="0" type="line"/>
      <point x="602" y="530" type="line"/>
      <point x="430" y="530" type="line"/>
      <point x="306" y="137" type="line"/>
      <point x="179" y="530" type="line"/>
      <point x="5" y="530" type="line"/>
    </contour>
  </outline>
</glyph>
<glyph name="w" format="1">
  <advance width="888"/>
  <unicode hex="0077"/>
  <outline>
    <contour>
      <point x="154" y="0" type="line"/>
      <point x="343" y="0" type="line"/>
      <point x="444" y="356" type="line"/>
      <point x="545" y="0" type="line"/>
      <point x="734" y="0" type="line"/>
      <point x="878" y="530" type="line"/>
      <point x="706" y="530" type="line"/>
      <point x="637" y="147" type="line"/>
      <point x="537" y="530" type="line"/>
      <point x="353" y="530" type="line"/>
      <point x="251" y="147" type="line"/>
      <point x="184" y="530" type="line"/>
      <point x="10" y="530" type="line"/>
    </contour>
  </outline>
</glyph>
<glyph name="braceleft" format="1">
  <advance width="375"/>
  <unicode hex="007B"/>
  <outline>
    <contour>
      <point x="156" y="294" type="curve"/>
      <point x="230" y="316"/>
      <point x="271" y="359"/>
      <point x="271" y="411" type="curve"/>
      <point x="271" y="549" type="line"/>
      <point x="271" y="574"/>
      <point x="287" y="582"/>
      <point x="305" y="582" type="curve" smooth="yes"/>
      <point x="322" y="582"/>
      <point x="342" y="574"/>
      <point x="355" y="566" type="curve"/>
      <point x="355" y="697" type="line"/>
      <point x="334" y="707"/>
      <point x="295" y="719"/>
      <point x="255" y="719" type="curve"/>
      <point x="180" y="719"/>
      <point x="121" y="671"/>
      <point x="121" y="600" type="curve"/>
      <point x="121" y="423" type="line"/>
      <point x="121" y="393"/>
      <point x="100" y="375"/>
      <point x="50" y="362" type="curve" smooth="yes"/>
      <point x="10" y="352" type="line"/>
      <point x="10" y="237" type="line"/>
      <point x="50" y="227" type="line" smooth="yes"/>
      <point x="100" y="215"/>
      <point x="121" y="197"/>
      <point x="121" y="166" type="curve"/>
      <point x="121" y="-11" type="line"/>
      <point x="121" y="-81"/>
      <point x="180" y="-129"/>
      <point x="255" y="-130" type="curve"/>
      <point x="295" y="-129"/>
      <point x="334" y="-117"/>
      <point x="355" y="-108" type="curve"/>
      <point x="355" y="23" type="line"/>
      <point x="342" y="16"/>
      <point x="322" y="8"/>
      <point x="305" y="7" type="curve" smooth="yes"/>
      <point x="287" y="8"/>
      <point x="271" y="16"/>
      <point x="271" y="40" type="curve"/>
      <point x="271" y="178" type="line"/>
      <point x="271" y="231"/>
      <point x="230" y="274"/>
    </contour>
  </outline>
</glyph>
<glyph name="sterling" format="1">
  <advance width="615"/>
  <unicode hex="00A3"/>
  <outline>
    <contour>
      <point x="575" y="0" type="line"/>
      <point x="575" y="160" type="line"/>
      <point x="276" y="160" type="line"/>
      <point x="293" y="188"/>
      <point x="302" y="215"/>
      <point x="302" y="253" type="curve" smooth="yes"/>
      <point x="302" y="322"/>
      <point x="263" y="398"/>
      <point x="263" y="465" type="curve"/>
      <point x="263.0" y="513.0"/>
      <point x="292.0625" y="535.0"/>
      <point x="338" y="535" type="curve"/>
      <point x="417.0" y="535.0"/>
      <point x="499" y="491"/>
      <point x="563" y="444" type="curve"/>
      <point x="563" y="625" type="line"/>
      <point x="512.808160201" y="656.754021098"/>
      <point x="425.491525424" y="698.0"/>
      <point x="319" y="698" type="curve"/>
      <point x="171.923076923" y="698.0"/>
      <point x="80.0" y="610.0"/>
      <point x="80" y="488" type="curve"/>
      <point x="80.0" y="382.420634921"/>
      <point x="140.0" y="297.757936508"/>
      <point x="140" y="237" type="curve"/>
      <point x="140.0" y="190.581818182"/>
      <point x="101.200692267" y="151.100346134"/>
      <point x="51" y="126" type="curve"/>
      <point x="51" y="0" type="line"/>
    </contour>
    <contour>
      <point x="20" y="286" type="line"/>
      <point x="479" y="286" type="line"/>
      <point x="479" y="401" type="line"/>
      <point x="20" y="401" type="line"/>
    </contour>
  </outline>
</glyph>
<glyph name="brokenbar" format="1">
  <advance width="295.0"/>
  <unicode hex="00A6"/>
  <outline>
    <contour>
      <point x="225.0" y="344.0" type="line"/>
      <point x="225.0" y="688.0" type="line"/>
      <point x="70.0" y="688.0" type="line"/>
      <point x="70.0" y="344.0" type="line"/>
    </contour>
    <contour>
      <point x="225" y="-158" type="line"/>
      <point x="225" y="186" type="line"/>
      <point x="70" y="186" type="line"/>
      <point x="70" y="-158" type="line"/>
    </contour>
  </outline>
</glyph>
<glyph name="dieresis" format="1">
  <advance width="423"/>
  <unicode hex="00A8"/>
  <outline>
    <contour>
      <point x="30" y="626"/>
      <point x="66" y="590"/>
      <point x="111" y="590" type="curve" smooth="yes"/>
      <point x="156" y="590"/>
      <point x="193" y="626"/>
      <point x="193" y="671" type="curve" smooth="yes"/>
      <point x="193" y="716"/>
      <point x="156" y="753"/>
      <point x="111" y="753" type="curve" smooth="yes"/>
      <point x="66" y="753"/>
      <point x="30" y="716"/>
      <point x="30" y="671" type="curve" smooth="yes"/>
    </contour>
    <contour>
      <point x="230" y="626"/>
      <point x="266" y="590"/>
      <point x="311" y="590" type="curve" smooth="yes"/>
      <point x="356" y="590"/>
      <point x="393" y="626"/>
      <point x="393" y="671" type="curve" smooth="yes"/>
      <point x="393" y="716"/>
      <point x="356" y="753"/>
      <point x="311" y="753" type="curve" smooth="yes"/>
      <point x="266" y="753"/>
      <point x="230" y="716"/>
      <point x="230" y="671" type="curve" smooth="yes"/>
    </contour>
  </outline>
</glyph>
<glyph name="copyright" format="1">
  <advance width="917"/>
  <unicode hex="00A9"/>
  <outline>
    <contour>
      <point x="458" y="39" type="curve" smooth="yes"/>
      <point x="636" y="39"/>
      <point x="762" y="175"/>
      <point x="762" y="343" type="curve" smooth="yes"/>
      <point x="762" y="510"/>
      <point x="636" y="647"/>
      <point x="458" y="647" type="curve" smooth="yes"/>
      <point x="281" y="647"/>
      <point x="155" y="510"/>
      <point x="155" y="343" type="curve" smooth="yes"/>
      <point x="155" y="176"/>
      <point x="281" y="39"/>
    </contour>
    <contour>
      <point x="458" y="-61" type="curve" smooth="yes"/>
      <point x="226" y="-61"/>
      <point x="55" y="120"/>
      <point x="55" y="343" type="curve"/>
      <point x="55" y="566"/>
      <point x="226" y="747"/>
      <point x="458" y="747" type="curve" smooth="yes"/>
      <point x="690" y="747"/>
      <point x="862" y="565"/>
      <point x="862" y="343" type="curve" smooth="yes"/>
      <point x="862" y="121"/>
      <point x="690" y="-61"/>
    </contour>
    <contour>
      <point x="626" y="532" type="curve"/>
      <point x="626" y="400" type="line"/>
      <point x="583" y="430"/>
      <point x="534" y="446"/>
      <point x="483" y="446" type="curve"/>
      <point x="417" y="446"/>
      <point x="375" y="407"/>
      <point x="375" y="343" type="curve" smooth="yes"/>
      <point x="375" y="282"/>
      <point x="417" y="240"/>
      <point x="482" y="240" type="curve"/>
      <point x="534" y="240"/>
      <point x="583" y="257"/>
      <point x="626" y="286" type="curve"/>
      <point x="626" y="155" type="line"/>
      <point x="587" y="129"/>
      <point x="534" y="117"/>
      <point x="477" y="117" type="curve"/>
      <point x="341" y="117"/>
      <point x="241" y="214"/>
      <point x="241" y="343" type="curve" smooth="yes"/>
      <point x="241" y="475"/>
      <point x="343" y="570"/>
      <point x="478" y="570" type="curve"/>
      <point x="534" y="570"/>
      <point x="587" y="557"/>
    </contour>
  </outline>
</glyph>
<glyph name="ordfeminine" format="1">
  <advance width="260"/>
  <unicode hex="00AA"/>
  <outline>
    <contour>
      <point x="163" y="553" type="curve"/>
      <point x="161" y="593" type="line"/>
      <point x="153" y="598"/>
      <point x="137" y="603"/>
      <point x="114" y="603" type="curve"/>
      <point x="68" y="603"/>
      <point x="30" y="579"/>
      <point x="30" y="539" type="curve" smooth="yes"/>
      <point x="30" y="499"/>
      <point x="58" y="478"/>
      <point x="100" y="478" type="curve"/>
      <point x="130" y="478"/>
      <point x="153" y="492"/>
      <point x="163" y="505" type="curve"/>
      <point x="158" y="540" type="line"/>
      <point x="149" y="534"/>
      <point x="132" y="530"/>
      <point x="118" y="530" type="curve" smooth="yes"/>
      <point x="107" y="530"/>
      <point x="99" y="533"/>
      <point x="99" y="542" type="curve"/>
      <point x="99" y="554"/>
      <point x="113" y="558"/>
      <point x="133" y="558" type="curve"/>
      <point x="144" y="558"/>
      <point x="155" y="556"/>
    </contour>
    <contour>
      <point x="156" y="592" type="curve"/>
      <point x="156" y="527" type="line"/>
      <point x="160" y="518" type="line"/>
      <point x="160" y="482" type="line"/>
      <point x="230" y="482" type="line"/>
      <point x="230" y="600" type="line"/>
      <point x="230" y="670"/>
      <point x="187" y="698"/>
      <point x="133" y="698" type="curve" smooth="yes"/>
      <point x="89" y="698"/>
      <point x="52" y="681"/>
      <point x="36" y="667" type="curve"/>
      <point x="36" y="595" type="line"/>
      <point x="54" y="614"/>
      <point x="85" y="627"/>
      <point x="113" y="627" type="curve" smooth="yes"/>
      <point x="138" y="627"/>
      <point x="156" y="616"/>
    </contour>
  </outline>
</glyph>
<glyph name="plusminus" format="1">
  <advance width="521"/>
  <unicode hex="00B1"/>
  <outline>
    <contour>
      <point x="336" y="615" type="line"/>
      <point x="185" y="615" type="line"/>
      <point x="185" y="194" type="line"/>
      <point x="336" y="194" type="line"/>
    </contour>
    <contour>
      <point x="30" y="332" type="line"/>
      <point x="491" y="332" type="line"/>
      <point x="491" y="477" type="line"/>
      <point x="30" y="477" type="line"/>
    </contour>
    <contour>
      <point x="30" y="74" type="line"/>
      <point x="491" y="74" type="line"/>
      <point x="491" y="219" type="line"/>
      <point x="30" y="219" type="line"/>
    </contour>
  </outline>
</glyph>
<glyph name="twosuperior" format="1">
  <advance width="306"/>
  <unicode hex="00B2"/>
  <outline>
    <contour>
      <point x="30" y="321" type="line"/>
      <point x="274" y="321" type="line"/>
      <point x="274" y="408" type="line"/>
      <point x="163" y="408" type="line"/>
      <point x="201" y="430" type="line" smooth="yes"/>
      <point x="260" y="464"/>
      <point x="276" y="504"/>
      <point x="276" y="544" type="curve" smooth="yes"/>
      <point x="276" y="601"/>
      <point x="237" y="650"/>
      <point x="158" y="650" type="curve" smooth="yes"/>
      <point x="112" y="650"/>
      <point x="64" y="634"/>
      <point x="33" y="612" type="curve"/>
      <point x="33" y="510" type="line"/>
      <point x="51" y="528"/>
      <point x="99" y="556"/>
      <point x="137" y="556" type="curve" smooth="yes"/>
      <point x="157" y="556"/>
      <point x="170" y="544"/>
      <point x="170" y="527" type="curve" smooth="yes"/>
      <point x="170" y="512"/>
      <point x="163" y="501"/>
      <point x="136" y="479" type="curve" smooth="yes"/>
      <point x="30" y="390" type="line"/>
    </contour>
  </outline>
</glyph>
<glyph name="threesuperior" format="1">
  <advance width="297"/>
  <unicode hex="00B3"/>
  <outline>
    <contour>
      <point x="140" y="313" type="curve" smooth="yes"/>
      <point x="221" y="313"/>
      <point x="267" y="358"/>
      <point x="267" y="421" type="curve" smooth="yes"/>
      <point x="267" y="475"/>
      <point x="229" y="514"/>
      <point x="179" y="514" type="curve" smooth="yes"/>
      <point x="170" y="514" type="line"/>
      <point x="257" y="565" type="line"/>
      <point x="257" y="641" type="line"/>
      <point x="32" y="641" type="line"/>
      <point x="32" y="557" type="line"/>
      <point x="141" y="557" type="line"/>
      <point x="62" y="505" type="line"/>
      <point x="62" y="461" type="line"/>
      <point x="113" y="461" type="line" smooth="yes"/>
      <point x="135" y="461"/>
      <point x="161" y="453"/>
      <point x="161" y="430" type="curve" smooth="yes"/>
      <point x="161" y="414"/>
      <point x="149" y="404"/>
      <point x="128" y="404" type="curve" smooth="yes"/>
      <point x="83" y="404"/>
      <point x="45" y="425"/>
      <point x="30" y="439" type="curve"/>
      <point x="30" y="342" type="line"/>
      <point x="50" y="329"/>
      <point x="88" y="313"/>
    </contour>
  </outline>
</glyph>
<glyph name="cedilla" format="1">
  <advance width="263"/>
  <unicode hex="00B8"/>
  <outline>
    <contour>
      <point x="130" y="0" type="line"/>
      <point x="30" y="-146" type="line"/>
      <point x="158" y="-196" type="line"/>
      <point x="233" y="0" type="line"/>
    </contour>
  </outline>
</glyph>
<glyph name="onesuperior" format="1">
  <advance width="258"/>
  <unicode hex="00B9"/>
  <outline>
    <contour>
      <point x="228" y="321" type="line"/>
      <point x="228" y="641" type="line"/>
      <point x="72" y="641" type="line"/>
      <point x="30" y="531" type="line"/>
      <point x="116" y="531" type="line"/>
      <point x="116" y="321" type="line"/>
    </contour>
  </outline>
</glyph>
<glyph name="Aring" format="1">
  <advance width="771"/>
  <unicode hex="00C5"/>
  <outline>
    <contour>
      <point x="386" y="609" type="curve" smooth="yes"/>
      <point x="458" y="609"/>
      <point x="513" y="664"/>
      <point x="513" y="732" type="curve" smooth="yes"/>
      <point x="513" y="800"/>
      <point x="458" y="855"/>
      <point x="386" y="855" type="curve" smooth="yes"/>
      <point x="314" y="855"/>
      <point x="259" y="800"/>
      <point x="259" y="732" type="curve" smooth="yes"/>
      <point x="259" y="664"/>
      <point x="314" y="609"/>
    </contour>
    <contour>
      <point x="387" y="688" type="curve" smooth="yes"/>
      <point x="364" y="688"/>
      <point x="345" y="707"/>
      <point x="345" y="732" type="curve" smooth="yes"/>
      <point x="345" y="757"/>
      <point x="364" y="776"/>
      <point x="387" y="776" type="curve" smooth="yes"/>
      <point x="410" y="776"/>
      <point x="429" y="757"/>
      <point x="429" y="732" type="curve" smooth="yes"/>
      <point x="429" y="707"/>
      <point x="410" y="688"/>
    </contour>
    <component base="A"/>
  </outline>
</glyph>
<glyph name="Thorn" format="1">
  <advance width="670"/>
  <unicode hex="00DE"/>
  <outline>
    <contour>
      <point x="60" y="688" type="line"/>
      <point x="60" y="0" type="line"/>
      <point x="230" y="0" type="line"/>
      <point x="230" y="688" type="line"/>
    </contour>
    <contour>
      <point x="190" y="257" type="line"/>
      <point x="190" y="97" type="line"/>
      <point x="366" y="97" type="line"/>
      <point x="535" y="97"/>
      <point x="650" y="184"/>
      <point x="650" y="344" type="curve" smooth="yes"/>
      <point x="650" y="508"/>
      <point x="535" y="592"/>
      <point x="366" y="592" type="curve"/>
      <point x="190" y="592" type="line"/>
      <point x="190" y="432" type="line"/>
      <point x="351" y="432" type="line"/>
      <point x="424" y="432"/>
      <point x="470" y="407"/>
      <point x="470" y="344" type="curve" smooth="yes"/>
      <point x="470" y="283"/>
      <point x="424" y="257"/>
      <point x="351" y="257" type="curve"/>
    </contour>
  </outline>
</glyph>
<glyph name="germandbls" format="1">
  <advance width="691.0"/>
  <unicode hex="00DF"/>
  <outline>
    <contour>
      <point x="10" y="380" type="line"/>
      <point x="167" y="380" type="line"/>
      <point x="167" y="530" type="line"/>
      <point x="10" y="530" type="line"/>
    </contour>
    <contour>
      <point x="363" y="306" type="curve" smooth="yes"/>
      <point x="363.0" y="259.06122449"/>
      <point x="388.269700317" y="233.385509167"/>
      <point x="430" y="206" type="curve" smooth="yes"/>
      <point x="462" y="185" type="line" smooth="yes"/>
      <point x="504" y="158"/>
      <point x="519" y="148"/>
      <point x="519" y="133" type="curve"/>
      <point x="519" y="120"/>
      <point x="506" y="116"/>
      <point x="489" y="116" type="curve" smooth="yes"/>
      <point x="445" y="116"/>
      <point x="374" y="140"/>
      <point x="330" y="164" type="curve"/>
      <point x="330" y="27" type="line"/>
      <point x="375.267886371" y="4.89242758644"/>
      <point x="431.168831169" y="-10.0"/>
      <point x="494" y="-10" type="curve"/>
      <point x="617.421621622" y="-10.0"/>
      <point x="671.0" y="52.0"/>
      <point x="671" y="136" type="curve"/>
      <point x="671.0" y="193.0"/>
      <point x="635.224363797" y="235.566004797"/>
      <point x="599" y="262" type="curve" smooth="yes"/>
      <point x="562" y="289" type="line" smooth="yes"/>
      <point x="530.443662296" y="312.027597784"/>
      <point x="519.0" y="319.893617021"/>
      <point x="519" y="333" type="curve" smooth="yes"/>
      <point x="519.0" y="343.731707317"/>
      <point x="528.977105948" y="358.116803624"/>
      <point x="542" y="377" type="curve" smooth="yes"/>
      <point x="562" y="406" type="line" smooth="yes"/>
      <point x="583.390116386" y="437.01566876"/>
      <point x="602" y="476"/>
      <point x="602" y="515" type="curve"/>
      <point x="602" y="609"/>
      <point x="525.0" y="698.0"/>
      <point x="380" y="698" type="curve"/>
      <point x="193.321167883" y="698.0"/>
      <point x="105.0" y="580.0"/>
      <point x="105" y="448" type="curve"/>
      <point x="105" y="0" type="line"/>
      <point x="265" y="0" type="line"/>
      <point x="265" y="449" type="line"/>
      <point x="265" y="518"/>
      <point x="307" y="553"/>
      <point x="369" y="553" type="curve"/>
      <point x="421" y="553"/>
      <point x="443" y="531"/>
      <point x="443" y="499" type="curve"/>
      <point x="443" y="479"/>
      <point x="428" y="453"/>
      <point x="413" y="426" type="curve" smooth="yes"/>
      <point x="394" y="392" type="line" smooth="yes"/>
      <point x="379.071628787" y="365.286072567"/>
      <point x="363.0" y="336.295454545"/>
    </contour>
  </outline>
</glyph>
<glyph name="ae" format="1">
  <advance width="874"/>
  <unicode hex="00E6"/>
  <outline>
    <contour>
      <point x="358" y="184" type="curve"/>
      <point x="352" y="278" type="line"/>
      <point x="332" y="290"/>
      <point x="289" y="303"/>
      <point x="228" y="303" type="curve"/>
      <point x="117" y="303"/>
      <point x="25" y="242"/>
      <point x="25" y="142" type="curve" smooth="yes"/>
      <point x="25" y="48"/>
      <point x="96" y="-10"/>
      <point x="205" y="-10" type="curve"/>
      <point x="305" y="-10"/>
      <point x="387" y="37"/>
      <point x="418" y="78" type="curve"/>
      <point x="374" y="146" type="line"/>
      <point x="342" y="126"/>
      <point x="294" y="110"/>
      <point x="236" y="110" type="curve"/>
      <point x="198" y="110"/>
      <point x="172" y="121"/>
      <point x="172" y="151" type="curve"/>
      <point x="172" y="184"/>
      <point x="212" y="198"/>
      <point x="271" y="198" type="curve"/>
      <point x="301" y="198"/>
      <point x="336" y="192"/>
    </contour>
    <contour>
      <point x="339" y="293" type="curve"/>
      <point x="339" y="240" type="line"/>
      <point x="499" y="240" type="line"/>
      <point x="499" y="302" type="line"/>
      <point x="499" y="473"/>
      <point x="393" y="540"/>
      <point x="261" y="540" type="curve" smooth="yes"/>
      <point x="161" y="540"/>
      <point x="77" y="498"/>
      <point x="41" y="464" type="curve"/>
      <point x="41" y="301" type="line"/>
      <point x="85" y="347"/>
      <point x="163" y="380"/>
      <point x="233" y="380" type="curve" smooth="yes"/>
      <point x="294" y="380"/>
      <point x="339" y="353"/>
    </contour>
    <contour>
      <point x="499" y="307" type="line" smooth="yes"/>
      <point x="499" y="360"/>
      <point x="527" y="406"/>
      <point x="593" y="406" type="curve"/>
      <point x="658" y="406"/>
      <point x="682" y="368"/>
      <point x="682" y="322" type="curve"/>
      <point x="495" y="322" type="line"/>
      <point x="495" y="222" type="line"/>
      <point x="839" y="222" type="line"/>
      <point x="839" y="295" type="line"/>
      <point x="839" y="446"/>
      <point x="753" y="540"/>
      <point x="603" y="540" type="curve" smooth="yes"/>
      <point x="443" y="540"/>
      <point x="339" y="430"/>
      <point x="339" y="265" type="curve"/>
      <point x="339" y="90"/>
      <point x="453" y="-10"/>
      <point x="627" y="-10" type="curve"/>
      <point x="714" y="-10"/>
      <point x="798" y="17"/>
      <point x="834" y="47" type="curve"/>
      <point x="834" y="185" type="line"/>
      <point x="791" y="165"/>
      <point x="724" y="140"/>
      <point x="646" y="140" type="curve" smooth="yes"/>
      <point x="535" y="140"/>
      <point x="499" y="178"/>
      <point x="499" y="251" type="curve" smooth="yes"/>
    </contour>
  </outline>
</glyph>
<glyph name="hcircumflex" format="1">
  <advance width="617"/>
  <unicode hex="0125"/>
  <outline>
    <contour>
      <point x="50" y="688" type="line"/>
      <point x="50" y="0" type="line"/>
      <point x="210" y="0" type="line"/>
      <point x="210" y="708" type="line"/>
    </contour>
    <contour>
      <point x="319" y="385" type="curve"/>
      <point x="387" y="385"/>
      <point x="410" y="348"/>
      <point x="410" y="297" type="curve"/>
      <point x="410" y="0" type="line"/>
      <point x="570" y="0" type="line"/>
      <point x="570" y="340" type="line"/>
      <point x="570" y="456"/>
      <point x="523" y="540"/>
      <point x="392" y="540" type="curve"/>
      <point x="300" y="540"/>
      <point x="225" y="496"/>
      <point x="185" y="452" type="curve"/>
      <point x="185" y="352" type="line"/>
      <point x="213" y="369"/>
      <point x="265" y="385"/>
    </contour>
    <component base="circumflex.uc" xOffset="-84"/>
  </outline>
</glyph>
<glyph name="Hbar" format="1">
  <advance width="760"/>
  <unicode hex="0126"/>
  <outline>
    <contour>
      <point x="510" y="688" type="line"/>
      <point x="510" y="0" type="line"/>
      <point x="680" y="0" type="line"/>
      <point x="680" y="688" type="line"/>
    </contour>
    <contour>
      <point x="60" y="688" type="line"/>
      <point x="60" y="0" type="line"/>
      <point x="230" y="0" type="line"/>
      <point x="230" y="688" type="line"/>
    </contour>
    <contour>
      <point x="123" y="266" type="line"/>
      <point x="586" y="266" type="line"/>
      <point x="586" y="426" type="line"/>
      <point x="123" y="426" type="line"/>
    </contour>
    <contour>
      <point x="10" y="484" type="line"/>
      <point x="750" y="484" type="line"/>
      <point x="750" y="624" type="line"/>
      <point x="10" y="624" type="line"/>
    </contour>
  </outline>
</glyph>
<glyph name="jcircumflex" format="1">
  <advance width="260"/>
  <unicode hex="0135"/>
  <outline>
    <contour>
      <point x="-8" y="-168" type="line"/>
      <point x="117" y="-156"/>
      <point x="208" y="-86"/>
      <point x="208" y="57" type="curve"/>
      <point x="208" y="530" type="line"/>
      <point x="48" y="530" type="line"/>
      <point x="48" y="66" type="line"/>
      <point x="48" y="1"/>
      <point x="23" y="-23"/>
      <point x="-47" y="-39" type="curve"/>
    </contour>
    <component base="circumflex" xOffset="-89"/>
  </outline>
</glyph>
<glyph name="OE" format="1">
  <advance width="1102"/>
  <unicode hex="0152"/>
  <outline>
    <contour>
      <point x="386" y="-10" type="curve" smooth="yes"/>
      <point x="181" y="-10"/>
      <point x="30" y="136"/>
      <point x="30" y="343" type="curve" smooth="yes"/>
      <point x="30" y="552"/>
      <point x="181" y="698"/>
      <point x="386" y="698" type="curve" smooth="yes"/>
      <point x="590" y="698"/>
      <point x="741" y="552"/>
      <point x="741" y="343" type="curve" smooth="yes"/>
      <point x="741" y="136"/>
      <point x="590" y="-10"/>
    </contour>
    <contour>
      <point x="386" y="150" type="curve" smooth="yes"/>
      <point x="492" y="150"/>
      <point x="571" y="224"/>
      <point x="571" y="343" type="curve" smooth="yes"/>
      <point x="571" y="463"/>
      <point x="492" y="538"/>
      <point x="386" y="538" type="curve" smooth="yes"/>
      <point x="279" y="538"/>
      <point x="200" y="463"/>
      <point x="200" y="343" type="curve"/>
      <point x="200" y="224"/>
      <point x="280" y="150"/>
    </contour>
    <contour>
      <point x="456" y="528" type="line"/>
      <point x="456" y="688" type="line"/>
      <point x="1067" y="688" type="line"/>
      <point x="1067" y="528" type="line"/>
    </contour>
    <contour>
      <point x="456" y="0" type="line"/>
      <point x="456" y="160" type="line"/>
      <point x="1067" y="160" type="line"/>
      <point x="1067" y="0" type="line"/>
    </contour>
    <contour>
      <point x="604" y="265" type="line"/>
      <point x="604" y="425" type="line"/>
      <point x="1017" y="425" type="line"/>
      <point x="1017" y="265" type="line"/>
    </contour>
  </outline>
</glyph>
<glyph name="Tbar" format="1">
  <advance width="602"/>
  <unicode hex="0166"/>
  <outline>
    <contour>
      <point x="216" y="688" type="line"/>
      <point x="216" y="0" type="line"/>
      <point x="386" y="0" type="line"/>
      <point x="386" y="688" type="line"/>
    </contour>
    <contour>
      <point x="10" y="528" type="line"/>
      <point x="592" y="528" type="line"/>
      <point x="592" y="688" type="line"/>
      <point x="10" y="688" type="line"/>
    </contour>
    <contour>
      <point x="88" y="274" type="line"/>
      <point x="514" y="274" type="line"/>
      <point x="514" y="414" type="line"/>
      <point x="88" y="414" type="line"/>
    </contour>
  </outline>
</glyph>
<glyph name="tbar" format="1">
  <advance width="477.0"/>
  <unicode hex="0167"/>
  <outline>
    <contour>
      <point x="30" y="335" type="line"/>
      <point x="30" y="195" type="line"/>
      <point x="437" y="195" type="line"/>
      <point x="437" y="335" type="line"/>
    </contour>
    <contour>
      <point x="437" y="21" type="curve"/>
      <point x="437" y="154" type="line"/>
      <point x="415" y="144"/>
      <point x="375" y="134"/>
      <point x="335" y="134" type="curve" smooth="yes"/>
      <point x="296" y="134"/>
      <point x="270" y="146"/>
      <point x="270" y="193" type="curve"/>
      <point x="270" y="390" type="line"/>
      <point x="437" y="390" type="line"/>
      <point x="437" y="530" type="line"/>
      <point x="270" y="530" type="line"/>
      <point x="270" y="629" type="line"/>
      <point x="235" y="629" type="line"/>
      <point x="30" y="429" type="line"/>
      <point x="30" y="390" type="line"/>
      <point x="110" y="390" type="line"/>
      <point x="110" y="170" type="line"/>
      <point x="110" y="29"/>
      <point x="186" y="-11"/>
      <point x="289" y="-11" type="curve" smooth="yes"/>
      <point x="355" y="-11"/>
      <point x="404" y="3"/>
    </contour>
  </outline>
</glyph>
<glyph name="breve" format="1">
  <advance width="381"/>
  <unicode hex="02D8"/>
  <outline>
    <contour>
      <point x="190" y="590" type="curve" smooth="yes"/>
      <point x="283" y="590"/>
      <point x="351" y="662"/>
      <point x="351" y="756" type="curve"/>
      <point x="241" y="756" type="line"/>
      <point x="241" y="713"/>
      <point x="218" y="692"/>
      <point x="190" y="692" type="curve" smooth="yes"/>
      <point x="162" y="692"/>
      <point x="139" y="713"/>
      <point x="139" y="756" type="curve"/>
      <point x="30" y="756" type="line"/>
      <point x="30" y="662"/>
      <point x="98" y="590"/>
    </contour>
  </outline>
</glyph>
<glyph name="dotaccent" format="1">
  <advance width="241"/>
  <unicode hex="02D9"/>
  <outline>
    <contour>
      <point x="30" y="630"/>
      <point x="70" y="590"/>
      <point x="120" y="590" type="curve" smooth="yes"/>
      <point x="170" y="590"/>
      <point x="211" y="630"/>
      <point x="211" y="680" type="curve" smooth="yes"/>
      <point x="211" y="730"/>
      <point x="170" y="771"/>
      <point x="120" y="771" type="curve" smooth="yes"/>
      <point x="70" y="771"/>
      <point x="30" y="730"/>
      <point x="30" y="680" type="curve" smooth="yes"/>
    </contour>
  </outline>
</glyph>
<glyph name="ring" format="1">
  <advance width="314"/>
  <unicode hex="02DA"/>
  <outline>
    <contour>
      <point x="157" y="590" type="curve" smooth="yes"/>
      <point x="229" y="590"/>
      <point x="284" y="645"/>
      <point x="284" y="713" type="curve" smooth="yes"/>
      <point x="284" y="781"/>
      <point x="229" y="836"/>
      <point x="157" y="836" type="curve" smooth="yes"/>
      <point x="85" y="836"/>
      <point x="30" y="781"/>
      <point x="30" y="713" type="curve" smooth="yes"/>
      <point x="30" y="645"/>
      <point x="85" y="590"/>
    </contour>
    <contour>
      <point x="158" y="669" type="curve" smooth="yes"/>
      <point x="135" y="669"/>
      <point x="116" y="688"/>
      <point x="116" y="713" type="curve" smooth="yes"/>
      <point x="116" y="738"/>
      <point x="135" y="757"/>
      <point x="158" y="757" type="curve" smooth="yes"/>
      <point x="181" y="757"/>
      <point x="200" y="738"/>
      <point x="200" y="713" type="curve" smooth="yes"/>
      <point x="200" y="688"/>
      <point x="181" y="669"/>
    </contour>
  </outline>
</glyph>
<glyph name="pi" format="1">
  <advance width="649"/>
  <unicode hex="03C0"/>
  <outline>
    <contour>
      <point x="20" y="390" type="line"/>
      <point x="616" y="390" type="line"/>
      <point x="616" y="530" type="line"/>
      <point x="20" y="530" type="line"/>
    </contour>
    <contour>
      <point x="100" y="462" type="line"/>
      <point x="100" y="0" type="line"/>
      <point x="260" y="0" type="line"/>
      <point x="260" y="462" type="line"/>
    </contour>
    <contour>
      <point x="534" y="214" type="curve"/>
      <point x="534" y="462" type="line"/>
      <point x="374" y="462" type="line"/>
      <point x="374" y="205" type="line"/>
      <point x="374" y="62"/>
      <point x="465" y="-8"/>
      <point x="590" y="-20" type="curve"/>
      <point x="629" y="109" type="line"/>
      <point x="559" y="125"/>
      <point x="534" y="149"/>
    </contour>
  </outline>
</glyph>
<glyph name="quotesinglbase" format="1">
  <advance width="247"/>
  <unicode hex="201A"/>
  <outline>
    <contour>
      <point x="222" y="118" type="line"/>
      <point x="70" y="118" type="line"/>
      <point x="45" y="-116" type="line"/>
      <point x="162" y="-116" type="line"/>
    </contour>
  </outline>
</glyph>
<glyph name="dagger" format="1">
  <advance width="415"/>
  <unicode hex="2020"/>
  <outline>
    <contour>
      <point x="287" y="0" type="line"/>
      <point x="287" y="688" type="line"/>
      <point x="127" y="688" type="line"/>
      <point x="127" y="0" type="line"/>
    </contour>
    <contour>
      <point x="30" y="390" type="line"/>
      <point x="385" y="390" type="line"/>
      <point x="385" y="530" type="line"/>
      <point x="30" y="530" type="line"/>
    </contour>
  </outline>
</glyph>
<glyph name="bullet" format="1">
  <advance width="440"/>
  <unicode hex="2022"/>
  <outline>
    <contour>
      <point x="220" y="184" type="curve" smooth="yes"/>
      <point x="309" y="184"/>
      <point x="380" y="255"/>
      <point x="380" y="344" type="curve" smooth="yes"/>
      <point x="380" y="433"/>
      <point x="309" y="504"/>
      <point x="220" y="504" type="curve" smooth="yes"/>
      <point x="131" y="504"/>
      <point x="60" y="433"/>
      <point x="60" y="344" type="curve" smooth="yes"/>
      <point x="60" y="255"/>
      <point x="131" y="184"/>
    </contour>
  </outline>
</glyph>
<glyph name="ellipsis" format="1">
  <advance width="847"/>
  <unicode hex="2026"/>
  <outline>
    <contour>
      <point x="134" y="-15" type="curve" smooth="yes"/>
      <point x="189" y="-15"/>
      <point x="234" y="29"/>
      <point x="234" y="84" type="curve" smooth="yes"/>
      <point x="234" y="139"/>
      <point x="189" y="184"/>
      <point x="134" y="184" type="curve" smooth="yes"/>
      <point x="79" y="184"/>
      <point x="35" y="139"/>
      <point x="35" y="84" type="curve" smooth="yes"/>
      <point x="35" y="29"/>
      <point x="79" y="-15"/>
    </contour>
    <contour>
      <point x="423" y="-15" type="curve" smooth="yes"/>
      <point x="478" y="-15"/>
      <point x="523" y="29"/>
      <point x="523" y="84" type="curve" smooth="yes"/>
      <point x="523" y="139"/>
      <point x="478" y="184"/>
      <point x="423" y="184" type="curve" smooth="yes"/>
      <point x="368" y="184"/>
      <point x="324" y="139"/>
      <point x="324" y="84" type="curve" smooth="yes"/>
      <point x="324" y="29"/>
      <point x="368" y="-15"/>
    </contour>
    <contour>
      <point x="712" y="-15" type="curve" smooth="yes"/>
      <point x="767" y="-15"/>
      <point x="812" y="29"/>
      <point x="812" y="84" type="curve" smooth="yes"/>
      <point x="812" y="139"/>
      <point x="767" y="184"/>
      <point x="712" y="184" type="curve" smooth="yes"/>
      <point x="657" y="184"/>
      <point x="613" y="139"/>
      <point x="613" y="84" type="curve" smooth="yes"/>
      <point x="613" y="29"/>
      <point x="657" y="-15"/>
    </contour>
  </outline>
</glyph>
<glyph name="guilsinglright" format="1">
  <advance width="325.0"/>
  <unicode hex="203A"/>
  <outline>
    <contour>
      <point x="295" y="198" type="line"/>
      <point x="40" y="58" type="line"/>
      <point x="40" y="203" type="line"/>
      <point x="173" y="266" type="line"/>
      <point x="40" y="328" type="line"/>
      <point x="40" y="473" type="line"/>
      <point x="295" y="333" type="line"/>
    </contour>
  </outline>
</glyph>
<glyph name="fraction" format="1">
  <advance width="62"/>
  <unicode hex="2044"/>
  <outline>
    <contour>
      <point x="-240" y="0" type="line"/>
      <point x="-118" y="0" type="line"/>
      <point x="302" y="688" type="line"/>
      <point x="182" y="688" type="line"/>
    </contour>
  </outline>
</glyph>
<glyph name="partialdiff" format="1">
  <advance width="630"/>
  <unicode hex="2202"/>
  <outline>
    <contour>
      <point x="408" y="399" type="curve"/>
      <point x="402" y="359" type="line"/>
      <point x="417.232306423" y="327.733686815"/>
      <point x="420.0" y="302.00952381"/>
      <point x="420" y="271" type="curve"/>
      <point x="420" y="196"/>
      <point x="375" y="151"/>
      <point x="309" y="151" type="curve"/>
      <point x="251" y="151"/>
      <point x="209" y="182"/>
      <point x="209" y="233" type="curve" smooth="yes"/>
      <point x="209" y="276"/>
      <point x="245" y="310"/>
      <point x="310" y="310" type="curve"/>
      <point x="371" y="310"/>
      <point x="435" y="281"/>
      <point x="467" y="250" type="curve"/>
      <point x="459" y="351" type="line"/>
      <point x="434" y="388"/>
      <point x="367" y="447"/>
      <point x="258" y="447" type="curve"/>
      <point x="117" y="447"/>
      <point x="30" y="348"/>
      <point x="30" y="233" type="curve" smooth="yes"/>
      <point x="30" y="84"/>
      <point x="141" y="-10"/>
      <point x="316" y="-10" type="curve" smooth="yes"/>
      <point x="499" y="-10"/>
      <point x="600" y="103"/>
      <point x="600" y="267" type="curve"/>
      <point x="600" y="465"/>
      <point x="454" y="619"/>
      <point x="348" y="688" type="curve"/>
      <point x="115" y="688" type="line"/>
      <point x="199.762266115" y="630.44537486"/>
      <point x="330.973361663" y="512.957218362"/>
    </contour>
  </outline>
</glyph>
<glyph name="product" format="1">
  <advance width="666"/>
  <unicode hex="220F"/>
  <outline>
    <contour>
      <point x="401" y="533" type="line"/>
      <point x="401" y="-158" type="line"/>
      <point x="566" y="-158" type="line"/>
      <point x="566" y="533" type="line"/>
      <point x="636" y="533" type="line"/>
      <point x="636" y="688" type="line"/>
      <point x="30" y="688" type="line"/>
      <point x="30" y="533" type="line"/>
      <point x="100" y="533" type="line"/>
      <point x="100" y="-158" type="line"/>
      <point x="265" y="-158" type="line"/>
      <point x="265" y="533" type="line"/>
    </contour>
  </outline>
</glyph>
<glyph name="minus" format="1">
  <advance width="521"/>
  <unicode hex="2212"/>
  <outline>
    <contour>
      <point x="30" y="272" type="line"/>
      <point x="491" y="272" type="line"/>
      <point x="491" y="417" type="line"/>
      <point x="30" y="417" type="line"/>
    </contour>
  </outline>
</glyph>
<glyph name="radical" format="1">
  <advance width="617"/>
  <unicode hex="221A"/>
  <outline>
    <contour>
      <point x="409" y="0" type="line"/>
      <point x="607" y="688" type="line"/>
      <point x="444" y="688" type="line"/>
      <point x="308" y="142" type="line"/>
      <point x="217" y="479" type="line"/>
      <point x="10" y="479" type="line"/>
      <point x="10" y="334" type="line"/>
      <point x="88" y="334" type="line"/>
      <point x="200" y="0" type="line"/>
    </contour>
  </outline>
</glyph>
<glyph name="notequal" format="1">
  <advance width="521"/>
  <unicode hex="2260"/>
  <outline>
    <contour>
      <point x="75" y="84" type="line"/>
      <point x="186" y="84" type="line"/>
      <point x="446" y="604" type="line"/>
      <point x="446" y="604"/>
      <point x="335" y="604"/>
      <point x="335" y="604" type="curve"/>
    </contour>
    <contour>
      <point x="30" y="161" type="line"/>
      <point x="491" y="161" type="line"/>
      <point x="491" y="306" type="line"/>
      <point x="30" y="306" type="line"/>
    </contour>
    <contour>
      <point x="30" y="381" type="line"/>
      <point x="491" y="381" type="line"/>
      <point x="491" y="526" type="line"/>
      <point x="30" y="526" type="line"/>
    </contour>
  </outline>
</glyph>
<glyph name="breve.uc" format="1">
  <advance width="381"/>
  <outline>
    <contour>
      <point x="190" y="738" type="curve" smooth="yes"/>
      <point x="283.0" y="738.0"/>
      <point x="351.0" y="796.987951807"/>
      <point x="351" y="874" type="curve"/>
      <point x="241" y="874" type="line"/>
      <point x="241.0" y="851.15625"/>
      <point x="228" y="840"/>
      <point x="190" y="840" type="curve" smooth="yes"/>
      <point x="152" y="840"/>
      <point x="139.0" y="851.15625"/>
      <point x="139" y="874" type="curve"/>
      <point x="30" y="874" type="line"/>
      <point x="30.0" y="796.987951807"/>
      <point x="98.0" y="738.0"/>
    </contour>
  </outline>
</glyph>
<glyph name="circumflex.uc" format="1">
  <advance width="438"/>
  <outline>
    <contour>
      <point x="147" y="874" type="line"/>
      <point x="291" y="874" type="line"/>
      <point x="408" y="748" type="line"/>
      <point x="257" y="748" type="line"/>
      <point x="219" y="795" type="line"/>
      <point x="181" y="748" type="line"/>
      <point x="30" y="748" type="line"/>
    </contour>
  </outline>
</glyph>
<glyph name="commaaccent" format="1">
  <advance width="245"/>
  <outline>
    <contour>
      <point x="215" y="-51" type="line"/>
      <point x="60" y="-51" type="line"/>
      <point x="30" y="-211" type="line"/>
      <point x="155" y="-211" type="line"/>
    </contour>
    <contour>
      <point x="142" y="-131" type="move" name="center"/>
    </contour>
  </outline>
</glyph>
<glyph name="f_f_h" format="1">
  <advance width="1321"/>
  <outline>
    <contour>
      <point x="360" y="698" type="line"/>
      <point x="345" y="704"/>
      <point x="321" y="710"/>
      <point x="288" y="710" type="curve"/>
      <point x="169" y="710"/>
      <point x="80" y="642"/>
      <point x="80" y="510" type="curve"/>
      <point x="80" y="0" type="line"/>
      <point x="240" y="0" type="line"/>
      <point x="240" y="510" type="line"/>
      <point x="240" y="561"/>
      <point x="269" y="581"/>
      <point x="310" y="581" type="curve"/>
      <point x="327" y="581"/>
      <point x="345" y="577"/>
      <point x="360" y="571" type="curve"/>
    </contour>
    <contour>
      <point x="764" y="683" type="line"/>
      <point x="736" y="695"/>
      <point x="688" y="710"/>
      <point x="630" y="710" type="curve" smooth="yes"/>
      <point x="516" y="710"/>
      <point x="417" y="642"/>
      <point x="417" y="510" type="curve"/>
      <point x="417" y="0" type="line"/>
      <point x="577" y="0" type="line"/>
      <point x="577" y="510" type="line"/>
      <point x="577" y="568"/>
      <point x="611" y="586"/>
      <point x="661" y="586" type="curve" smooth="yes"/>
      <point x="698" y="586"/>
      <point x="738" y="573"/>
      <point x="764" y="559" type="curve"/>
    </contour>
    <contour>
      <point x="10" y="390" type="line"/>
      <point x="673" y="390" type="line"/>
      <point x="673" y="530" type="line"/>
      <point x="10" y="530" type="line"/>
    </contour>
    <contour>
      <point x="754" y="683" type="line"/>
      <point x="754" y="0" type="line"/>
      <point x="914" y="0" type="line"/>
      <point x="914" y="708" type="line"/>
    </contour>
    <contour>
      <point x="889" y="452" type="curve"/>
      <point x="889" y="352" type="line"/>
      <point x="917" y="369"/>
      <point x="969" y="385"/>
      <point x="1023" y="385" type="curve"/>
      <point x="1091" y="385"/>
      <point x="1114" y="348"/>
      <point x="1114" y="297" type="curve"/>
      <point x="1114" y="0" type="line"/>
      <point x="1274" y="0" type="line"/>
      <point x="1274" y="340" type="line"/>
      <point x="1274" y="456"/>
      <point x="1227" y="540"/>
      <point x="1096" y="540" type="curve"/>
      <point x="1004" y="540"/>
      <point x="929" y="496"/>
    </contour>
  </outline>
</glyph>
<glyph name="f_k" format="1">
  <advance width="956"/>
  <outline>
    <contour>
      <point x="427" y="683" type="curve"/>
      <point x="427" y="559" type="line"/>
      <point x="401" y="573"/>
      <point x="361" y="586"/>
      <point x="324" y="586" type="curve" smooth="yes"/>
      <point x="274" y="586"/>
      <point x="240" y="568"/>
      <point x="240" y="510" type="curve"/>
      <point x="240" y="0" type="line"/>
      <point x="80" y="0" type="line"/>
      <point x="80" y="510" type="line"/>
      <point x="80" y="642"/>
      <point x="179" y="710"/>
      <point x="293" y="710" type="curve" smooth="yes"/>
      <point x="351" y="710"/>
      <point x="399" y="695"/>
    </contour>
    <contour>
      <point x="10" y="390" type="line"/>
      <point x="10" y="530" type="line"/>
      <point x="336" y="530" type="line"/>
      <point x="336" y="390" type="line"/>
    </contour>
    <contour>
      <point x="417" y="683" type="line"/>
      <point x="577" y="708" type="line"/>
      <point x="577" y="0" type="line"/>
      <point x="417" y="0" type="line"/>
    </contour>
    <contour>
      <point x="575" y="279" type="line"/>
      <point x="761" y="530" type="line"/>
      <point x="944" y="530" type="line"/>
      <point x="742" y="283" type="line"/>
      <point x="946" y="0" type="line"/>
      <point x="762" y="0" type="line"/>
    </contour>
  </outline>
</glyph>
<glyph name="four.superior" format="1">
  <advance width="356"/>
  <outline>
    <contour>
      <point x="191" y="321" type="line"/>
      <point x="289" y="321" type="line"/>
      <point x="289" y="641" type="line"/>
      <point x="187" y="641" type="line"/>
      <point x="191" y="552" type="line"/>
    </contour>
    <contour>
      <point x="95" y="438" type="line"/>
      <point x="209" y="556" type="line"/>
      <point x="187" y="641" type="line"/>
      <point x="30" y="463" type="line"/>
    </contour>
    <contour>
      <point x="30" y="463" type="line"/>
      <point x="30" y="463"/>
      <point x="30" y="381"/>
      <point x="30" y="381" type="curve"/>
      <point x="326" y="381" type="line"/>
      <point x="326" y="463" type="line"/>
    </contour>
  </outline>
</glyph>
<glyph name="macron.uc" format="1">
  <advance width="375"/>
  <outline>
    <contour>
      <point x="30" y="864" type="line"/>
      <point x="30.0" y="864.0"/>
      <point x="30.0" y="759.0"/>
      <point x="30" y="759" type="curve"/>
      <point x="345" y="759" type="line"/>
      <point x="345" y="864" type="line"/>
    </contour>
  </outline>
</glyph>
